<svg width="1135" height="805" xmlns="http://www.w3.org/2000/svg" xmlns:xlink="http://www.w3.org/1999/xlink" overflow="hidden"><defs><clipPath id="clip0"><rect x="-48" y="2" width="1135" height="805"/></clipPath></defs><g clip-path="url(#clip0)" transform="translate(48 -2)"><path d="M905 29.6579C905 24.8763 908.876 21 913.658 21L1034.34 21C1039.12 21 1043 24.8763 1043 29.6579L1043 89.3421C1043 94.1237 1039.12 98 1034.34 98L913.658 98C908.876 98 905 94.1237 905 89.3421Z" stroke="#BFBFBF" stroke-width="2" stroke-linejoin="round" stroke-miterlimit="10" fill="#F2F2F2" fill-rule="evenodd"/><text fill="#54585A" font-family="Verdana,Verdana_MSFontService,sans-serif" font-weight="400" font-size="11" transform="translate(961.319 34)">Fluid</text><path d="M948 363.658C948 358.876 951.876 355 956.658 355L1077.34 355C1082.12 355 1086 358.876 1086 363.658L1086 423.342C1086 428.124 1082.12 432 1077.34 432L956.658 432C951.876 432 948 428.124 948 423.342Z" stroke="#BFBFBF" stroke-width="2" stroke-linejoin="round" stroke-miterlimit="10" fill="#F2F2F2" fill-rule="evenodd"/><text fill="#54585A" font-family="Verdana,Verdana_MSFontService,sans-serif" font-weight="400" font-size="11" transform="translate(1004.17 368)">Fluid</text><path d="M883 669.658C883 664.876 886.876 661 891.658 661L1011.34 661C1016.12 661 1020 664.876 1020 669.658L1020 729.342C1020 734.124 1016.12 738 1011.34 738L891.658 738C886.876 738 883 734.124 883 729.342Z" stroke="#BFBFBF" stroke-width="2" stroke-linejoin="round" stroke-miterlimit="10" fill="#F2F2F2" fill-rule="evenodd"/><text fill="#54585A" font-family="Verdana,Verdana_MSFontService,sans-serif" font-weight="400" font-size="11" transform="translate(938.771 674)">Fluid</text><path d="M724 669.77C724 664.927 727.927 661 732.77 661L852.23 661C857.073 661 861 664.927 861 669.77L861 730.23C861 735.073 857.073 739 852.23 739L732.77 739C727.927 739 724 735.073 724 730.23Z" stroke="#BFBFBF" stroke-width="2" stroke-linejoin="round" stroke-miterlimit="10" fill="#F2F2F2" fill-rule="evenodd"/><text fill="#54585A" font-family="Verdana,Verdana_MSFontService,sans-serif" font-weight="400" font-size="11" transform="translate(770.772 674)">Channel</text><path d="M743 116.936C743 112.001 747.001 108 751.936 108L871.064 108C875.999 108 880 112.001 880 116.936L880 301.064C880 305.999 875.999 310 871.064 310L751.936 310C747.001 310 743 305.999 743 301.064Z" stroke="#BFBFBF" stroke-width="2" stroke-linejoin="round" stroke-miterlimit="10" fill="#F2F2F2" fill-rule="evenodd"/><text fill="#54585A" font-family="Verdana,Verdana_MSFontService,sans-serif" font-weight="400" font-size="11" transform="translate(796.621 122)">Layer</text><path d="M743 28.7703C743 23.9266 746.927 20 751.77 20L871.23 20C876.073 20 880 23.9266 880 28.7703L880 89.2297C880 94.0734 876.073 98 871.23 98L751.77 98C746.927 98 743 94.0734 743 89.2297Z" stroke="#BFBFBF" stroke-width="2" stroke-linejoin="round" stroke-miterlimit="10" fill="#F2F2F2" fill-rule="evenodd"/><text fill="#54585A" font-family="Verdana,Verdana_MSFontService,sans-serif" font-weight="400" font-size="11" transform="translate(824.181 34)">Channel</text><path d="M788 363.77C788 358.927 791.927 355 796.77 355L916.23 355C921.073 355 925 358.927 925 363.77L925 424.23C925 429.073 921.073 433 916.23 433L796.77 433C791.927 433 788 429.073 788 424.23Z" stroke="#BFBFBF" stroke-width="2" stroke-linejoin="round" stroke-miterlimit="10" fill="#F2F2F2" fill-rule="evenodd"/><text fill="#54585A" font-family="Verdana,Verdana_MSFontService,sans-serif" font-weight="400" font-size="11" transform="translate(869.466 369)">Channel</text><path d="M788 450.937C788 446.001 792.001 442 796.937 442L916.063 442C920.999 442 925 446.001 925 450.937L925 639.063C925 643.999 920.999 648 916.063 648L796.937 648C792.001 648 788 643.999 788 639.063Z" stroke="#BFBFBF" stroke-width="2" stroke-linejoin="round" stroke-miterlimit="10" fill="#F2F2F2" fill-rule="evenodd"/><text fill="#54585A" font-family="Verdana,Verdana_MSFontService,sans-serif" font-weight="400" font-size="11" transform="translate(841.9 456)">Layer</text><path d="M-46 267.735C-46 263.463-42.537 260-38.2653 260L62.2653 260C66.537 260 70 263.463 70 267.735L70 333.265C70 337.537 66.537 341 62.2653 341L-38.2653 341C-42.537 341-46 337.537-46 333.265Z" stroke="#BFBFBF" stroke-width="2" stroke-linejoin="round" stroke-miterlimit="10" fill="#F2F2F2" fill-rule="evenodd"/><text fill="#54585A" font-family="Verdana,Verdana_MSFontService,sans-serif" font-weight="400" font-size="11" transform="translate(-16.8688 273)">Simulation</text><path d="M125 266.735C125 262.463 128.463 259 132.735 259L233.265 259C237.537 259 241 262.463 241 266.735L241 332.265C241 336.537 237.537 340 233.265 340L132.735 340C128.463 340 125 336.537 125 332.265Z" stroke="#BFBFBF" stroke-width="2" stroke-linejoin="round" stroke-miterlimit="10" fill="#F2F2F2" fill-rule="evenodd"/><text fill="#54585A" font-family="Verdana,Verdana_MSFontService,sans-serif" font-weight="400" font-size="11" transform="translate(168.104 272)">Stack</text><path d="M125 168.83C125 164.506 128.506 161 132.83 161L233.17 161C237.494 161 241 164.506 241 168.83L241 235.17C241 239.494 237.494 243 233.17 243L132.83 243C128.506 243 125 239.494 125 235.17Z" stroke="#BFBFBF" stroke-width="2" stroke-linejoin="round" stroke-miterlimit="10" fill="#F2F2F2" fill-rule="evenodd"/><text fill="#54585A" font-family="Verdana,Verdana_MSFontService,sans-serif" font-weight="400" font-size="11" transform="translate(164.863 175)">Output</text><path d="M506 267.557C506 262.279 510.279 258 515.557 258L633.443 258C638.721 258 643 262.279 643 267.557L643 333.443C643 338.721 638.721 343 633.443 343L515.557 343C510.279 343 506 338.721 506 333.443Z" stroke="#BFBFBF" stroke-width="2" stroke-linejoin="round" stroke-miterlimit="10" fill="#F2F2F2" fill-rule="evenodd"/><text fill="#54585A" font-family="Verdana,Verdana_MSFontService,sans-serif" font-weight="400" font-size="11" transform="translate(546.126 272)">Membrane</text><path d="M506 533.3C506 527.611 510.611 523 516.3 523L632.7 523C638.389 523 643 527.611 643 533.3L643 727.7C643 733.389 638.389 738 632.7 738L516.3 738C510.611 738 506 733.389 506 727.7Z" stroke="#BFBFBF" stroke-width="2" stroke-linejoin="round" stroke-miterlimit="10" fill="#F2F2F2" fill-rule="evenodd"/><text fill="#54585A" font-family="Verdana,Verdana_MSFontService,sans-serif" font-weight="400" font-size="11" transform="translate(544.938 537)">FlowCircuit</text><path d="M506 394.445C506 389.229 510.229 385 515.445 385L633.555 385C638.771 385 643 389.229 643 394.445L643 459.555C643 464.771 638.771 469 633.555 469L515.445 469C510.229 469 506 464.771 506 459.555Z" stroke="#BFBFBF" stroke-width="2" stroke-linejoin="round" stroke-miterlimit="10" fill="#F2F2F2" fill-rule="evenodd"/><text fill="#54585A" font-family="Verdana,Verdana_MSFontService,sans-serif" font-weight="400" font-size="11" transform="translate(553.855 399)">HalfCell</text><path d="M506 141.433C506 136.775 509.775 133 514.433 133L634.567 133C639.225 133 643 136.775 643 141.433L643 207.567C643 212.225 639.225 216 634.567 216L514.433 216C509.775 216 506 212.225 506 207.567Z" stroke="#BFBFBF" stroke-width="2" stroke-linejoin="round" stroke-miterlimit="10" fill="#F2F2F2" fill-rule="evenodd"/><text fill="#54585A" font-family="Verdana,Verdana_MSFontService,sans-serif" font-weight="400" font-size="11" transform="translate(553.999 146)">HalfCell</text><path d="M336 268.544C336 264.377 339.377 261 343.544 261L444.456 261C448.623 261 452 264.377 452 268.544L452 332.456C452 336.623 448.623 340 444.456 340L343.544 340C339.377 340 336 336.623 336 332.456Z" stroke="#BFBFBF" stroke-width="2" stroke-linejoin="round" stroke-miterlimit="10" fill="#F2F2F2" fill-rule="evenodd"/><text fill="#54585A" font-family="Verdana,Verdana_MSFontService,sans-serif" font-weight="400" font-size="11" transform="translate(420.638 275)">Cell</text><path d="M337 156.039C337 152.151 340.151 149 344.039 149L445.961 149C449.849 149 453 152.151 453 156.039L453 233.961C453 237.849 449.849 241 445.961 241L344.039 241C340.151 241 337 237.849 337 233.961Z" stroke="#BFBFBF" stroke-width="2" stroke-linejoin="round" stroke-miterlimit="10" fill="#F2F2F2" fill-rule="evenodd"/><text fill="#54585A" font-family="Verdana,Verdana_MSFontService,sans-serif" font-weight="400" font-size="11" transform="translate(360.694 162)">Temperature<tspan font-size="11" x="14.42" y="12">System</tspan></text><path d="M338 45.6093C338 40.8545 341.855 37 346.609 37L445.391 37C450.146 37 454 40.8545 454 45.6093L454 120.391C454 125.145 450.146 129 445.391 129L346.609 129C341.855 129 338 125.145 338 120.391Z" stroke="#BFBFBF" stroke-width="2" stroke-linejoin="round" stroke-miterlimit="10" fill="#F2F2F2" fill-rule="evenodd"/><text fill="#54585A" font-family="Verdana,Verdana_MSFontService,sans-serif" font-weight="400" font-size="11" transform="translate(371.997 51)">Electrical<tspan font-size="11" x="0.5" y="12">Coupling</tspan></text><path d="M-38 290.167C-38 285.656-34.3436 282-29.8331 282L52.8331 282C57.3436 282 61 285.656 61 290.167L61 322.833C61 327.344 57.3436 331 52.8331 331L-29.8331 331C-34.3436 331-38 327.344-38 322.833Z" stroke="#0064B4" stroke-width="2" stroke-linejoin="round" stroke-miterlimit="10" fill="#BDE2FF" fill-rule="evenodd"/><text fill="#0064B4" font-family="Verdana,Verdana_MSFontService,sans-serif" font-weight="400" font-size="14" transform="translate(-24.6257 312)">simulation</text><path d="M134 290.167C134 285.656 137.656 282 142.167 282L224.833 282C229.344 282 233 285.656 233 290.167L233 322.833C233 327.344 229.344 331 224.833 331L142.167 331C137.656 331 134 327.344 134 322.833Z" stroke="#0064B4" stroke-width="2" stroke-linejoin="round" stroke-miterlimit="10" fill="#BDE2FF" fill-rule="evenodd"/><text fill="#0064B4" font-family="Verdana,Verdana_MSFontService,sans-serif" font-weight="400" font-size="14" transform="translate(165.39 312)">stack</text><path d="M346 290.167C346 285.656 349.656 282 354.167 282L436.833 282C441.344 282 445 285.656 445 290.167L445 322.833C445 327.344 441.344 331 436.833 331L354.167 331C349.656 331 346 327.344 346 322.833Z" stroke="#0064B4" stroke-width="2" stroke-linejoin="round" stroke-miterlimit="10" fill="#BDE2FF" fill-rule="evenodd"/><text fill="#0064B4" font-family="Verdana,Verdana_MSFontService,sans-serif" font-weight="400" font-size="14" transform="translate(383.588 312)">cell</text><path d="M516 419.167C516 414.656 519.656 411 524.167 411L624.833 411C629.344 411 633 414.656 633 419.167L633 451.833C633 456.344 629.344 460 624.833 460L524.167 460C519.656 460 516 456.344 516 451.833Z" stroke="#0064B4" stroke-width="2" stroke-linejoin="round" stroke-miterlimit="10" fill="#BDE2FF" fill-rule="evenodd"/><text fill="#0064B4" font-family="Verdana,Verdana_MSFontService,sans-serif" font-weight="400" font-size="14" transform="translate(547.076 441)">cathode</text><path d="M516 290.167C516 285.656 519.656 282 524.167 282L624.833 282C629.344 282 633 285.656 633 290.167L633 322.833C633 327.344 629.344 331 624.833 331L524.167 331C519.656 331 516 327.344 516 322.833Z" stroke="#0064B4" stroke-width="2" stroke-linejoin="round" stroke-miterlimit="10" fill="#BDE2FF" fill-rule="evenodd"/><text fill="#0064B4" font-family="Verdana,Verdana_MSFontService,sans-serif" font-weight="400" font-size="14" transform="translate(536.973 312)">membrane</text><path d="M798 475.167C798 470.656 801.656 467 806.167 467L906.833 467C911.344 467 915 470.656 915 475.167L915 507.833C915 512.344 911.344 516 906.833 516L806.167 516C801.656 516 798 512.344 798 507.833Z" stroke="#0064B4" stroke-width="2" stroke-linejoin="round" stroke-miterlimit="10" fill="#BDE2FF" fill-rule="evenodd"/><text fill="#0064B4" font-family="Verdana,Verdana_MSFontService,sans-serif" font-weight="400" font-size="14" transform="translate(843.932 497)">bpp</text><path d="M798 536.167C798 531.656 801.656 528 806.167 528L906.833 528C911.344 528 915 531.656 915 536.167L915 568.833C915 573.344 911.344 577 906.833 577L806.167 577C801.656 577 798 573.344 798 568.833Z" stroke="#0064B4" stroke-width="2" stroke-linejoin="round" stroke-miterlimit="10" fill="#BDE2FF" fill-rule="evenodd"/><text fill="#0064B4" font-family="Verdana,Verdana_MSFontService,sans-serif" font-weight="400" font-size="14" transform="translate(846.349 558)">gdl</text><path d="M798 597.167C798 592.656 801.656 589 806.167 589L906.833 589C911.344 589 915 592.656 915 597.167L915 629.833C915 634.344 911.344 638 906.833 638L806.167 638C801.656 638 798 634.344 798 629.833Z" stroke="#0064B4" stroke-width="2" stroke-linejoin="round" stroke-miterlimit="10" fill="#BDE2FF" fill-rule="evenodd"/><text fill="#0064B4" font-family="Verdana,Verdana_MSFontService,sans-serif" font-weight="400" font-size="14" transform="translate(829.682 611)">catalyst<tspan font-size="14" x="9.83331" y="17">layer</tspan></text><path d="M633 435 715.597 435 715.597 491.103 798.194 491.103" stroke="#0064B4" stroke-width="2" stroke-linejoin="round" stroke-miterlimit="10" fill="none" fill-rule="evenodd"/><path d="M633 435 715.597 435 715.597 613.029 798.194 613.029" stroke="#0064B4" stroke-width="2" stroke-linejoin="round" stroke-miterlimit="10" fill="none" fill-rule="evenodd"/><path d="M798 382.167C798 377.656 801.656 374 806.167 374L906.833 374C911.344 374 915 377.656 915 382.167L915 414.833C915 419.344 911.344 423 906.833 423L806.167 423C801.656 423 798 419.344 798 414.833Z" stroke="#0064B4" stroke-width="2" stroke-linejoin="round" stroke-miterlimit="10" fill="#BDE2FF" fill-rule="evenodd"/><text fill="#0064B4" font-family="Verdana,Verdana_MSFontService,sans-serif" font-weight="400" font-size="14" transform="translate(829.766 404)">channel</text><path d="M959 382.167C959 377.656 962.656 374 967.167 374L1066.83 374C1071.34 374 1075 377.656 1075 382.167L1075 414.833C1075 419.344 1071.34 423 1066.83 423L967.167 423C962.656 423 959 419.344 959 414.833Z" stroke="#0064B4" stroke-width="2" stroke-linejoin="round" stroke-miterlimit="10" fill="#BDE2FF" fill-rule="evenodd"/><text fill="#0064B4" font-family="Verdana,Verdana_MSFontService,sans-serif" font-weight="400" font-size="14" transform="translate(1001.92 404)">fluid</text><path d="M0 0 43.163 0.000104987" stroke="#0064B4" stroke-width="2" stroke-linejoin="round" stroke-miterlimit="10" fill="none" fill-rule="evenodd" transform="matrix(1 0 0 -1 915 398)"/><path d="M0 0 82.5969 0 82.5969 36.8715 165.194 36.8715" stroke="#0064B4" stroke-width="2" stroke-linejoin="round" stroke-miterlimit="10" fill="none" fill-rule="evenodd" transform="matrix(1 0 0 -1 633 434.871)"/><path d="M633 435 715.597 435 715.597 552.066 798.194 552.066" stroke="#0064B4" stroke-width="2" stroke-linejoin="round" stroke-miterlimit="10" fill="none" fill-rule="evenodd"/><path d="M516 165.167C516 160.656 519.656 157 524.167 157L624.833 157C629.344 157 633 160.656 633 165.167L633 197.833C633 202.344 629.344 206 624.833 206L524.167 206C519.656 206 516 202.344 516 197.833Z" stroke="#0064B4" stroke-width="2" stroke-linejoin="round" stroke-miterlimit="10" fill="#BDE2FF" fill-rule="evenodd"/><text fill="#0064B4" font-family="Verdana,Verdana_MSFontService,sans-serif" font-weight="400" font-size="14" transform="translate(553.493 187)">anode</text><path d="M755 137.333C755 132.731 758.731 129 763.333 129L863.667 129C868.269 129 872 132.731 872 137.333L872 170.667C872 175.269 868.269 179 863.667 179L763.333 179C758.731 179 755 175.269 755 170.667Z" stroke="#0064B4" stroke-width="2" stroke-linejoin="round" stroke-miterlimit="10" fill="#BDE2FF" fill-rule="evenodd"/><text fill="#0064B4" font-family="Verdana,Verdana_MSFontService,sans-serif" font-weight="400" font-size="14" transform="translate(800.167 160)">bpp</text><path d="M755 198.333C755 193.731 758.731 190 763.333 190L863.667 190C868.269 190 872 193.731 872 198.333L872 231.667C872 236.269 868.269 240 863.667 240L763.333 240C758.731 240 755 236.269 755 231.667Z" stroke="#0064B4" stroke-width="2" stroke-linejoin="round" stroke-miterlimit="10" fill="#BDE2FF" fill-rule="evenodd"/><text fill="#0064B4" font-family="Verdana,Verdana_MSFontService,sans-serif" font-weight="400" font-size="14" transform="translate(802.583 221)">gdl</text><path d="M755 259.333C755 254.731 758.731 251 763.333 251L863.667 251C868.269 251 872 254.731 872 259.333L872 292.667C872 297.269 868.269 301 863.667 301L763.333 301C758.731 301 755 297.269 755 292.667Z" stroke="#0064B4" stroke-width="2" stroke-linejoin="round" stroke-miterlimit="10" fill="#BDE2FF" fill-rule="evenodd"/><text fill="#0064B4" font-family="Verdana,Verdana_MSFontService,sans-serif" font-weight="400" font-size="14" transform="translate(785.917 273)">catalyst<tspan font-size="14" x="9.83331" y="17">layer</tspan></text><path d="M0 0 60.7141 0 60.7141 27.7179 121.428 27.7179" stroke="#0064B4" stroke-width="2" stroke-linejoin="round" stroke-miterlimit="10" fill="none" fill-rule="evenodd" transform="matrix(1 0 0 -1 633 181.718)"/><path d="M633 182 693.714 182 693.714 276.208 754.428 276.208" stroke="#0064B4" stroke-width="2" stroke-linejoin="round" stroke-miterlimit="10" fill="none" fill-rule="evenodd"/><path d="M755 48.1669C755 43.6564 758.656 40 763.167 40L863.833 40C868.344 40 872 43.6564 872 48.1669L872 80.8331C872 85.3436 868.344 89 863.833 89L763.167 89C758.656 89 755 85.3436 755 80.8331Z" stroke="#0064B4" stroke-width="2" stroke-linejoin="round" stroke-miterlimit="10" fill="#BDE2FF" fill-rule="evenodd"/><text fill="#0064B4" font-family="Verdana,Verdana_MSFontService,sans-serif" font-weight="400" font-size="14" transform="translate(786 70)">channel</text><path d="M916 48.1669C916 43.6564 919.656 40 924.167 40L1024.83 40C1029.34 40 1033 43.6564 1033 48.1669L1033 80.8331C1033 85.3436 1029.34 89 1024.83 89L924.167 89C919.656 89 916 85.3436 916 80.8331Z" stroke="#0064B4" stroke-width="2" stroke-linejoin="round" stroke-miterlimit="10" fill="#BDE2FF" fill-rule="evenodd"/><text fill="#0064B4" font-family="Verdana,Verdana_MSFontService,sans-serif" font-weight="400" font-size="14" transform="translate(958.988 70)">fluid</text><path d="M0 0 43.9933 0.000104987" stroke="#0064B4" stroke-width="2" stroke-linejoin="round" stroke-miterlimit="10" fill="none" fill-rule="evenodd" transform="matrix(1 0 0 -1 872 65.0001)"/><path d="M0 0 60.7141 0 60.7141 117.125 121.428 117.125" stroke="#0064B4" stroke-width="2" stroke-linejoin="round" stroke-miterlimit="10" fill="none" fill-rule="evenodd" transform="matrix(1 0 0 -1 633 182.125)"/><path d="M633 182 693.714 182 693.714 215.245 754.428 215.245" stroke="#0064B4" stroke-width="2" stroke-linejoin="round" stroke-miterlimit="10" fill="none" fill-rule="evenodd"/><path d="M0 0 35.7354 0 35.7354 124.702 71.4709 124.702" stroke="#0064B4" stroke-width="2" stroke-linejoin="round" stroke-miterlimit="10" fill="none" fill-rule="evenodd" transform="matrix(1 0 0 -1 445 306.702)"/><path d="M445 306 480.736 306 480.736 434.888 516.471 434.888" stroke="#0064B4" stroke-width="2" stroke-linejoin="round" stroke-miterlimit="10" fill="none" fill-rule="evenodd"/><path d="M445 306 480.767 306 480.767 306.007 516.534 306.007" stroke="#0064B4" stroke-width="2" stroke-linejoin="round" stroke-miterlimit="10" fill="none" fill-rule="evenodd"/><path d="M135 191.333C135 186.731 138.731 183 143.333 183L225.667 183C230.269 183 234 186.731 234 191.333L234 224.667C234 229.269 230.269 233 225.667 233L143.333 233C138.731 233 135 229.269 135 224.667Z" stroke="#0064B4" stroke-width="2" stroke-linejoin="round" stroke-miterlimit="10" fill="#BDE2FF" fill-rule="evenodd"/><text fill="#0064B4" font-family="Verdana,Verdana_MSFontService,sans-serif" font-weight="400" font-size="14" transform="translate(161.705 213)">output</text><path d="M0 0 36.8536 0 36.8536 98.6171 73.7073 98.6171" stroke="#0064B4" stroke-width="2" stroke-linejoin="round" stroke-miterlimit="10" fill="none" fill-rule="evenodd" transform="matrix(1 0 0 -1 61 306.617)"/><path d="M61 306 97.4461 306 97.4461 306.144 133.892 306.144" stroke="#0064B4" stroke-width="2" stroke-linejoin="round" stroke-miterlimit="10" fill="none" fill-rule="evenodd"/><path d="M345 189.167C345 184.656 348.656 181 353.167 181L436.833 181C441.344 181 445 184.656 445 189.167L445 221.833C445 226.344 441.344 230 436.833 230L353.167 230C348.656 230 345 226.344 345 221.833Z" stroke="#0064B4" stroke-width="2" stroke-linejoin="round" stroke-miterlimit="10" fill="#BDE2FF" fill-rule="evenodd"/><text fill="#0064B4" font-family="Verdana,Verdana_MSFontService,sans-serif" font-weight="400" font-size="11" transform="translate(358.445 204)">temperature_<tspan font-size="11" x="17.5867" y="12">system</tspan></text><path d="M347 79.1668C347 74.6564 350.656 71 355.167 71L438.833 71C443.344 71 447 74.6564 447 79.1668L447 111.833C447 116.344 443.344 120 438.833 120L355.167 120C350.656 120 347 116.344 347 111.833Z" stroke="#0064B4" stroke-width="2" stroke-linejoin="round" stroke-miterlimit="10" fill="#BDE2FF" fill-rule="evenodd"/><text fill="#0064B4" font-family="Verdana,Verdana_MSFontService,sans-serif" font-weight="400" font-size="11" transform="translate(369.633 94)">electrical<tspan font-size="11" x="47.6667" y="0">_</tspan><tspan font-size="11" x="4.74667" y="12">coupling</tspan></text><path d="M516 623.333C516 618.731 519.731 615 524.333 615L624.667 615C629.269 615 633 618.731 633 623.333L633 656.667C633 661.269 629.269 665 624.667 665L524.333 665C519.731 665 516 661.269 516 656.667Z" stroke="#0064B4" stroke-width="2" stroke-linejoin="round" stroke-miterlimit="10" fill="#BDE2FF" fill-rule="evenodd"/><text fill="#0064B4" font-family="Verdana,Verdana_MSFontService,sans-serif" font-weight="400" font-size="14" transform="translate(530.16 637)">cathode<tspan font-size="14" x="60.5" y="0">flow</tspan><tspan font-size="14" x="23.3333" y="17">circuit</tspan></text><path d="M516 689.167C516 684.656 519.656 681 524.167 681L624.833 681C629.344 681 633 684.656 633 689.167L633 721.833C633 726.344 629.344 730 624.833 730L524.167 730C519.656 730 516 726.344 516 721.833Z" stroke="#0064B4" stroke-width="2" stroke-linejoin="round" stroke-miterlimit="10" fill="#BDE2FF" fill-rule="evenodd"/><text fill="#0064B4" font-family="Verdana,Verdana_MSFontService,sans-serif" font-weight="400" font-size="14" transform="translate(532.493 703)">coolant<tspan font-size="14" x="55.8334" y="0">flow</tspan><tspan font-size="14" x="21" y="17">circuit</tspan></text><path d="M516 557.333C516 552.731 519.731 549 524.333 549L624.667 549C629.269 549 633 552.731 633 557.333L633 590.667C633 595.269 629.269 599 624.667 599L524.333 599C519.731 599 516 595.269 516 590.667Z" stroke="#0064B4" stroke-width="2" stroke-linejoin="round" stroke-miterlimit="10" fill="#BDE2FF" fill-rule="evenodd"/><text fill="#0064B4" font-family="Verdana,Verdana_MSFontService,sans-serif" font-weight="400" font-size="14" transform="translate(536.576 571)">anode<tspan font-size="14" x="47.6667" y="0">flow</tspan><tspan font-size="14" x="16.9133" y="17">circuit</tspan></text><path d="M233 306 270.308 306 270.308 639.408 515.919 639.408" stroke="#0064B4" stroke-width="2" stroke-linejoin="round" stroke-miterlimit="10" fill="none" fill-rule="evenodd"/><path d="M0 0 56.0789 0 56.0789 0.0808399 112.158 0.0808399" stroke="#0064B4" stroke-width="2" stroke-linejoin="round" stroke-miterlimit="10" fill="none" fill-rule="evenodd" transform="matrix(1 0 0 -1 233 306.081)"/><path d="M0 0 36.8081 0 36.8081 100.899 112.015 100.899" stroke="#0064B4" stroke-width="2" stroke-linejoin="round" stroke-miterlimit="10" fill="none" fill-rule="evenodd" transform="matrix(1 0 0 -1 233 306.899)"/><path d="M0 0 36.893 0 36.893 210.904 113.787 210.904" stroke="#0064B4" stroke-width="2" stroke-linejoin="round" stroke-miterlimit="10" fill="none" fill-rule="evenodd" transform="matrix(1 0 0 -1 233 306.904)"/><path d="M233 306 270.309 306 270.309 573.624 515.919 573.624" stroke="#0064B4" stroke-width="2" stroke-linejoin="round" stroke-miterlimit="10" fill="none" fill-rule="evenodd"/><path d="M0 0 32.638 0 32.638 570.087 179.884 570.087 179.884 534.314" stroke="#0064B4" stroke-width="2" stroke-linejoin="round" stroke-miterlimit="10" stroke-dasharray="6 2" fill="none" fill-rule="evenodd" transform="matrix(1 0 0 -1 633 574.314)"/><path d="M0 0 59.9539 0 59.9539 304.749 223.65 304.749 223.65 266.256" stroke="#0064B4" stroke-width="2" stroke-linejoin="round" stroke-miterlimit="10" stroke-dasharray="6 2" fill="none" fill-rule="evenodd" transform="matrix(1 0 0 -1 633 640.256)"/><path d="M733 689.167C733 684.656 736.656 681 741.167 681L841.833 681C846.344 681 850 684.656 850 689.167L850 721.833C850 726.344 846.344 730 841.833 730L741.167 730C736.656 730 733 726.344 733 721.833Z" stroke="#0064B4" stroke-width="2" stroke-linejoin="round" stroke-miterlimit="10" fill="#BDE2FF" fill-rule="evenodd"/><text fill="#0064B4" font-family="Verdana,Verdana_MSFontService,sans-serif" font-weight="400" font-size="14" transform="translate(764.539 711)">channel</text><path d="M893 689.333C893 684.731 896.731 681 901.333 681L1001.67 681C1006.27 681 1010 684.731 1010 689.333L1010 722.667C1010 727.269 1006.27 731 1001.67 731L901.333 731C896.731 731 893 727.269 893 722.667Z" stroke="#0064B4" stroke-width="2" stroke-linejoin="round" stroke-miterlimit="10" fill="#BDE2FF" fill-rule="evenodd"/><text fill="#0064B4" font-family="Verdana,Verdana_MSFontService,sans-serif" font-weight="400" font-size="14" transform="translate(936.472 711)">fluid</text><path d="M850 706 892.937 706.11" stroke="#0064B4" stroke-width="2" stroke-linejoin="round" stroke-miterlimit="10" fill="none" fill-rule="evenodd"/><path d="M633 706 732.968 706" stroke="#0064B4" stroke-width="2" stroke-linejoin="round" stroke-miterlimit="10" fill="none" fill-rule="evenodd"/><path d="M233 306 270.309 306 270.309 705.193 515.919 705.193" stroke="#0064B4" stroke-width="2" stroke-linejoin="round" stroke-miterlimit="10" fill="none" fill-rule="evenodd"/><path d="M31 437.735C31 433.463 34.463 430 38.7347 430L139.265 430C143.537 430 147 433.463 147 437.735L147 503.265C147 507.537 143.537 511 139.265 511L38.7347 511C34.463 511 31 507.537 31 503.265Z" stroke="#BFBFBF" stroke-width="2" stroke-linejoin="round" stroke-miterlimit="10" fill="#F2F2F2" fill-rule="evenodd"/><text fill="#54585A" font-family="Verdana,Verdana_MSFontService,sans-serif" font-weight="400" font-size="11" transform="translate(75.537 443)">Class</text><path d="M40 461.334C40 456.731 43.7311 453 48.3335 453L131.666 453C136.269 453 140 456.731 140 461.334L140 494.666C140 499.269 136.269 503 131.666 503L48.3335 503C43.7311 503 40 499.269 40 494.666Z" stroke="#0064B4" stroke-width="2" stroke-linejoin="round" stroke-miterlimit="10" fill="#BDE2FF" fill-rule="evenodd"/><text fill="#0064B4" font-family="Verdana,Verdana_MSFontService,sans-serif" font-weight="400" font-size="14" transform="translate(68.3713 484)">object</text><path d="M34 540 71.5035 540.11" stroke="#0064B4" stroke-width="2" stroke-linejoin="round" stroke-miterlimit="10" fill="none" fill-rule="evenodd"/><text fill="#0064B4" font-family="Verdana,Verdana_MSFontService,sans-serif" font-weight="400" font-size="14" transform="translate(85.61 545)">composition</text><path d="M34 571 71.5035 571.11" stroke="#0064B4" stroke-width="2" stroke-linejoin="round" stroke-miterlimit="10" stroke-dasharray="6 2" fill="none" fill-rule="evenodd"/><text fill="#0064B4" font-family="Verdana,Verdana_MSFontService,sans-serif" font-weight="400" font-size="14" transform="translate(85.6099 576)">reference<tspan font-size="13" x="215.286" y="-277">1…N</tspan><tspan font-size="13" x="600.273" y="119">1…N</tspan></text><path d="M395 330.823 395 354.823 294.955 354.823 294.955 140.629 396.629 140.629 396.629 120" stroke="#0064B4" stroke-width="2" stroke-linejoin="round" stroke-miterlimit="10" stroke-dasharray="6 2" fill="none" fill-rule="evenodd"/><path d="M395 230 395.143 281.252" stroke="#0064B4" stroke-width="2" stroke-linejoin="round" stroke-miterlimit="10" stroke-dasharray="6 2" fill="none" fill-rule="evenodd"/><text font-family="Verdana,Verdana_MSFontService,sans-serif" font-weight="400" font-size="16" transform="translate(318.984 794)">Main class structure (sub<tspan font-size="16" x="202.333" y="0">-</tspan><tspan font-size="16" x="209.667" y="0">classes not displayed)</tspan></text></g></svg>